
<svg xmlns="http://www.w3.org/2000/svg" version="1.1" xmlns:xlink="http://www.w3.org/1999/xlink" xmlns:svgjs="http://svgjs.dev/svgjs" width="1000" height="1000" viewBox="0 0 1000 1000"><rect width="1000" height="1000" fill="#000000"></rect><g transform="matrix(0.7,0,0,0.7,150,150.000273549974)"><svg viewBox="0 0 280 280" data-background-color="#000000" preserveAspectRatio="xMidYMid meet" height="1000" width="1000" xmlns="http://www.w3.org/2000/svg" xmlns:xlink="http://www.w3.org/1999/xlink"><g id="tight-bounds" transform="matrix(1,0,0,1,0,0.000109419989627213)"><svg viewBox="0 0 280 280" height="280" width="280"><g><svg viewBox="0 0 280 280" height="280" width="280"><g><svg viewBox="0 0 280 280" height="280" width="280"><g id="textblocktransform"><svg viewBox="0 0 280 280" height="280" width="280" id="textblock"><g><svg viewBox="0 0 280 280" height="280" width="280"><g transform="matrix(1,0,0,1,74.00336708925556,99.04296885146059)"><svg viewBox="0 0 131.99326582148888 81.91406229707884" height="81.91406229707884" width="131.99326582148888"><g><svg xmlns="http://www.w3.org/2000/svg" xmlns:xlink="http://www.w3.org/1999/xlink" version="1.1" x="0" y="0" viewBox="9.661624908447266 26.763999938964844 78.45242309570312 48.68700408935547" enable-background="new 0 0 100 100" xml:space="preserve" height="81.91406229707884" width="131.99326582148888" class="icon-o-0" data-fill-palette-color="accent" id="o-0"><g fill="#ffffff" data-fill-palette-color="accent"><path d="M48.992 53.555c1.653 0 2.998-1.344 2.998-2.996 0-1.654-1.345-2.999-2.998-2.999s-2.998 1.345-2.998 2.999C45.994 52.211 47.339 53.555 48.992 53.555zM48.992 48.712c1.018 0 1.845 0.828 1.845 1.847 0 1.017-0.828 1.844-1.845 1.844s-1.846-0.827-1.846-1.844C47.146 49.54 47.974 48.712 48.992 48.712z" fill="#ffffff" data-fill-palette-color="accent"></path><circle cx="47.575" cy="46.57" r="0.42" fill="#ffffff" data-fill-palette-color="accent"></circle><circle cx="48.992" cy="46.57" r="0.42" fill="#ffffff" data-fill-palette-color="accent"></circle><circle cx="50.408" cy="46.57" r="0.42" fill="#ffffff" data-fill-palette-color="accent"></circle><circle cx="46.866" cy="45.418" r="0.42" fill="#ffffff" data-fill-palette-color="accent"></circle><circle cx="48.283" cy="45.418" r="0.42" fill="#ffffff" data-fill-palette-color="accent"></circle><circle cx="49.7" cy="45.418" r="0.42" fill="#ffffff" data-fill-palette-color="accent"></circle><circle cx="51.117" cy="45.418" r="0.42" fill="#ffffff" data-fill-palette-color="accent"></circle><path d="M88.111 65.374c-1.771-22.591-5.874-31.184-8.808-35.681l-0.16-0.247c-1.828-2.832-6.103-2.656-6.755-2.611-0.463-0.011-2.888-0.021-6.78 0.869h-4.041c-0.212-0.549-0.729-0.94-1.336-0.94H37.315c-0.606 0-1.124 0.391-1.336 0.94h-3.811c-3.892-0.891-6.317-0.881-6.78-0.869-0.65-0.044-4.927-0.221-6.755 2.611l-0.161 0.247c-2.933 4.498-7.037 13.09-8.807 35.681-0.003 0.04-0.004 0.081-0.003 0.121 0.094 3.443 1.976 9.956 8.426 9.956 6.215 0 9.476-4.718 10.333-7.216l3.171-9.317 0.642-0.594c1.293 0.803 2.816 1.268 4.447 1.268 1.766 0 3.407-0.545 4.765-1.475 0.064 0.011 0.13 0.02 0.198 0.02h14.712c1.353 0.918 2.983 1.455 4.737 1.455 1.631 0 3.154-0.465 4.447-1.268l0.642 0.594 3.172 9.32c0.856 2.495 4.118 7.213 10.332 7.213 6.451 0 8.333-6.513 8.427-9.956C88.115 65.455 88.114 65.414 88.111 65.374zM63.66 40.445c0-5.085 4.138-9.222 9.222-9.222 2.264 0 4.338 0.821 5.944 2.179 0.923 1.76 2.063 4.388 3.185 8.34-0.632 4.473-4.484 7.925-9.129 7.925C67.798 49.667 63.66 45.53 63.66 40.445zM63.118 31.397c0-0.218 0.282-0.461 0.687-0.461 0.405 0 0.688 0.244 0.688 0.461v1.975c0 0.218-0.282 0.461-0.688 0.461-0.404 0-0.687-0.243-0.687-0.461V31.397zM65.74 30.009c0.088 0 0.175-0.01 0.26-0.03 3.986-0.925 6.341-0.84 6.36-0.839 0.051 0.002 0.104 0.001 0.153-0.003 0.973-0.082 3.711 0.038 4.693 1.56l0.166 0.256c0.044 0.067 0.091 0.139 0.14 0.214-1.395-0.699-2.967-1.095-4.631-1.095-2.813 0-5.367 1.127-7.237 2.952v-1.626c0-0.591-0.365-1.107-0.907-1.388H65.74zM37.027 28.252c0-0.185 0.129-0.336 0.288-0.336h22.916c0.158 0 0.288 0.151 0.288 0.336v12.384c0 0.185-0.13 0.336-0.288 0.336H37.315c-0.159 0-0.288-0.151-0.288-0.336V28.252zM37.315 42.125h22.916c0.794 0 1.44-0.668 1.44-1.488V30.009h1.2c-0.541 0.281-0.906 0.797-0.906 1.388v1.975c0 0.89 0.825 1.614 1.839 1.614 0.094 0 0.186-0.008 0.274-0.02-0.994 1.591-1.571 3.469-1.571 5.48 0 0.827 0.101 1.631 0.284 2.402-0.554-0.113-1.12-0.172-1.697-0.172-4.664 0-8.458 3.793-8.458 8.458 0 1.016 0.18 1.99 0.51 2.893h-8.516c0.33-0.902 0.51-1.877 0.51-2.893 0-4.664-3.794-8.458-8.458-8.458-0.577 0-1.144 0.059-1.697 0.172 0.184-0.771 0.284-1.575 0.284-2.402 0-2.003-0.572-3.873-1.559-5.46 0.002 0 0.005 0 0.007 0 1.014 0 1.839-0.724 1.839-1.614v-1.975c0-0.591-0.365-1.107-0.907-1.388h1.225v10.628C35.875 41.457 36.521 42.125 37.315 42.125zM44.109 55.178h9.559c0.123 0.225 0.256 0.443 0.397 0.654H43.712C43.854 55.621 43.986 55.402 44.109 55.178zM24.896 49.667c-4.645 0-8.497-3.452-9.129-7.925 1.121-3.952 2.262-6.58 3.185-8.339 1.606-1.358 3.681-2.179 5.944-2.179 5.084 0 9.221 4.137 9.221 9.222S29.98 49.667 24.896 49.667zM33.032 31.397c0-0.218 0.282-0.461 0.686-0.461 0.405 0 0.687 0.244 0.687 0.461v1.975c0 0.218-0.282 0.461-0.687 0.461-0.404 0-0.686-0.243-0.686-0.461V31.397zM20.57 30.696c0.982-1.521 3.723-1.641 4.691-1.56 0.05 0.004 0.103 0.006 0.153 0.003 0.023-0.001 2.376-0.086 6.363 0.839 0.085 0.02 0.173 0.03 0.26 0.03h0.749c-0.542 0.281-0.906 0.797-0.906 1.388v1.384c-1.845-1.682-4.296-2.71-6.984-2.71-1.664 0-3.236 0.396-4.631 1.095 0.049-0.075 0.096-0.146 0.14-0.214L20.57 30.696zM18.089 73.146c-4.27 0-5.563-3.983-5.955-6.229 1.784 1.277 5.072 2.785 10.66 2.785 0.711 0 1.463-0.027 2.25-0.08C23.857 71.226 21.686 73.146 18.089 73.146zM29.506 57.898l-3.264 9.592c-0.005 0.015-0.135 0.379-0.424 0.917-8.45 0.755-12.392-1.792-13.833-3.112 0.744-9.352 1.918-16.217 3.174-21.267 1.462 3.96 5.274 6.791 9.736 6.791 1.182 0 2.317-0.202 3.376-0.567-0.03 0.292-0.047 0.586-0.047 0.881 0 2.197 0.842 4.201 2.221 5.707l-0.631 0.583C29.674 57.553 29.568 57.717 29.506 57.898zM30.529 51.133c0-0.615 0.089-1.227 0.271-1.812 0.038-0.128 0.047-0.257 0.042-0.383 1.266-0.89 2.325-2.054 3.089-3.406 0.126-0.007 0.254-0.029 0.378-0.081 0.749-0.314 1.547-0.472 2.374-0.472 3.394 0 6.153 2.76 6.153 6.153 0 3.395-2.76 6.154-6.153 6.154S30.529 54.527 30.529 51.133zM54.941 51.133c0-3.393 2.76-6.153 6.153-6.153 0.827 0 1.625 0.158 2.374 0.472 0.124 0.052 0.251 0.073 0.378 0.081 0.765 1.352 1.823 2.516 3.089 3.406-0.005 0.126 0.004 0.255 0.042 0.383 0.179 0.585 0.271 1.196 0.271 1.812 0 3.395-2.76 6.154-6.153 6.154S54.941 54.527 54.941 51.133zM68.271 57.898c-0.062-0.182-0.168-0.346-0.309-0.476l-0.631-0.583c1.379-1.506 2.221-3.51 2.221-5.707 0-0.295-0.017-0.589-0.047-0.881 1.06 0.365 2.194 0.567 3.376 0.567 4.462 0 8.274-2.831 9.736-6.791 1.255 5.044 2.428 11.899 3.172 21.235-1.39 1.311-5.284 3.906-13.835 3.148-0.27-0.509-0.399-0.865-0.419-0.919L68.271 57.898zM79.688 73.146c-3.623 0-5.791-1.918-6.97-3.521 0.774 0.052 1.515 0.078 2.216 0.078 5.646 0 8.943-1.539 10.715-2.824C85.267 69.117 83.982 73.146 79.688 73.146z" fill="#ffffff" data-fill-palette-color="accent"></path><path d="M72.973 38.25c1.652 0 2.997-1.345 2.997-2.998 0-1.653-1.345-2.998-2.997-2.998-1.654 0-2.999 1.345-2.999 2.998C69.974 36.905 71.318 38.25 72.973 38.25zM71.736 36.619h2.471c-0.327 0.296-0.76 0.479-1.234 0.479C72.497 37.097 72.064 36.915 71.736 36.619zM72.972 34.976l0.271 0.49H72.7L72.972 34.976zM74.817 35.251c0 0.189-0.029 0.371-0.082 0.543-0.005-0.01-0.007-0.021-0.012-0.031l-1.248-2.257c-0.008-0.013-0.018-0.023-0.026-0.035C74.235 33.682 74.817 34.399 74.817 35.251zM72.493 33.472c-0.009 0.012-0.02 0.021-0.026 0.035l-1.247 2.258c-0.006 0.009-0.007 0.02-0.012 0.03-0.053-0.171-0.082-0.354-0.082-0.542C71.126 34.4 71.707 33.684 72.493 33.472z" fill="#ffffff" data-fill-palette-color="accent"></path><path d="M78.166 42.075c0.911 0 1.652-0.742 1.652-1.653s-0.741-1.653-1.652-1.653c-0.912 0-1.653 0.741-1.653 1.653S77.254 42.075 78.166 42.075zM78.166 39.921c0.275 0 0.5 0.225 0.5 0.5 0 0.276-0.225 0.501-0.5 0.501-0.276 0-0.501-0.225-0.501-0.501C77.665 40.146 77.89 39.921 78.166 39.921z" fill="#ffffff" data-fill-palette-color="accent"></path><path d="M75.97 45.639c0-1.653-1.345-2.998-2.997-2.998-1.654 0-2.999 1.345-2.999 2.998 0 1.654 1.345 2.998 2.999 2.998C74.625 48.637 75.97 47.293 75.97 45.639zM71.126 45.639c0-1.018 0.828-1.845 1.847-1.845 1.017 0 1.845 0.828 1.845 1.845 0 1.017-0.828 1.845-1.845 1.845C71.954 47.484 71.126 46.656 71.126 45.639z" fill="#ffffff" data-fill-palette-color="accent"></path><path d="M78.165 43.443c1.653 0 2.998-1.345 2.998-2.997 0-1.653-1.345-2.999-2.998-2.999-1.652 0-2.998 1.345-2.998 2.999C75.167 42.099 76.513 43.443 78.165 43.443zM78.165 38.6c1.018 0 1.846 0.828 1.846 1.846 0 1.017-0.828 1.845-1.846 1.845s-1.846-0.828-1.846-1.845C76.319 39.428 77.147 38.6 78.165 38.6z" fill="#ffffff" data-fill-palette-color="accent"></path><path d="M67.777 37.448c-1.652 0-2.998 1.345-2.998 2.999 0 1.652 1.346 2.997 2.998 2.997 1.653 0 2.998-1.345 2.998-2.997C70.775 38.793 69.431 37.448 67.777 37.448zM67.777 42.291c-1.018 0-1.846-0.828-1.846-1.845 0-1.018 0.828-1.846 1.846-1.846s1.846 0.828 1.846 1.846C69.623 41.463 68.795 42.291 67.777 42.291z" fill="#ffffff" data-fill-palette-color="accent"></path><path d="M61.096 45.863c-2.793 0-5.064 2.273-5.064 5.066 0 2.791 2.271 5.062 5.064 5.062 2.792 0 5.064-2.271 5.064-5.062C66.16 48.137 63.888 45.863 61.096 45.863zM61.096 54.84c-2.157 0-3.912-1.754-3.912-3.91 0-2.158 1.755-3.914 3.912-3.914 2.156 0 3.912 1.756 3.912 3.914C65.008 53.086 63.252 54.84 61.096 54.84z" fill="#ffffff" data-fill-palette-color="accent"></path><path d="M36.683 45.863c-2.793 0-5.064 2.273-5.064 5.066 0 2.791 2.271 5.062 5.064 5.062 2.792 0 5.064-2.271 5.064-5.062C41.747 48.137 39.475 45.863 36.683 45.863zM36.683 54.84c-2.157 0-3.912-1.754-3.912-3.91 0-2.158 1.755-3.914 3.912-3.914 2.157 0 3.912 1.756 3.912 3.914C40.594 53.086 38.839 54.84 36.683 54.84z" fill="#ffffff" data-fill-palette-color="accent"></path><path d="M68.666 38.981H66.89c-0.318 0-0.576 0.258-0.576 0.576v1.777c0 0.318 0.258 0.576 0.576 0.576h1.776c0.318 0 0.576-0.258 0.576-0.576v-1.777C69.242 39.239 68.984 38.981 68.666 38.981zM68.09 40.758h-0.624v-0.625h0.624V40.758z" fill="#ffffff" data-fill-palette-color="accent"></path><polygon points="73.702,47.184 74.517,46.369 73.786,45.639 74.517,44.909 73.702,44.094 72.972,44.824 72.241,44.094    71.427,44.909 72.157,45.639 71.427,46.369 72.241,47.184 72.972,46.454  " fill="#ffffff" data-fill-palette-color="accent"></polygon><path d="M25.692 41.885c-0.427-0.425-1.168-0.425-1.596 0.001l-1.083 1.084c-0.108 0.108-0.168 0.255-0.168 0.407v2.316c0 0.318 0.258 0.576 0.576 0.576h2.949c0.318 0 0.576-0.258 0.576-0.576v-2.316c0-0.152-0.061-0.299-0.169-0.407L25.692 41.885zM25.793 45.117h-1.796v-1.501l0.898-0.899 0.898 0.899V45.117z" fill="#ffffff" data-fill-palette-color="accent"></path><path d="M24.098 39.072c0.214 0.212 0.497 0.329 0.798 0.329s0.583-0.117 0.798-0.33l1.083-1.084c0.108-0.108 0.168-0.254 0.168-0.407v-2.316c0-0.318-0.258-0.576-0.576-0.576H23.42c-0.318 0-0.576 0.258-0.576 0.576v2.316c0 0.153 0.061 0.299 0.168 0.407L24.098 39.072zM23.997 35.839h1.796v1.502l-0.898 0.898-0.898-0.899V35.839z" fill="#ffffff" data-fill-palette-color="accent"></path><path d="M23.487 39.68l-1.084-1.084c-0.108-0.108-0.255-0.168-0.407-0.168h-2.316c-0.318 0-0.576 0.258-0.576 0.576v2.949c0 0.318 0.258 0.576 0.576 0.576h2.316c0.152 0 0.299-0.061 0.407-0.168l1.085-1.085C23.926 40.835 23.926 40.121 23.487 39.68zM21.757 41.376h-1.501V39.58h1.501l0.898 0.898L21.757 41.376z" fill="#ffffff" data-fill-palette-color="accent"></path><path d="M30.11 38.428h-2.316c-0.153 0-0.299 0.061-0.408 0.168l-1.085 1.084c-0.438 0.44-0.438 1.155 0 1.596l1.085 1.084c0.108 0.108 0.254 0.168 0.407 0.168h2.316c0.318 0 0.576-0.258 0.576-0.576v-2.949C30.687 38.686 30.428 38.428 30.11 38.428zM29.534 41.376h-1.501l-0.899-0.898 0.899-0.898h1.501V41.376z" fill="#ffffff" data-fill-palette-color="accent"></path><polygon points="24.895,32.705 23.647,33.952 26.142,33.952  " fill="#ffffff" data-fill-palette-color="accent"></polygon><polygon points="24.895,48.252 26.143,47.004 23.647,47.004  " fill="#ffffff" data-fill-palette-color="accent"></polygon><polygon points="31.421,39.23 31.421,41.726 32.668,40.478  " fill="#ffffff" data-fill-palette-color="accent"></polygon><polygon points="18.369,41.726 18.369,39.231 17.121,40.479  " fill="#ffffff" data-fill-palette-color="accent"></polygon></g></svg></g></svg></g><g><path d="M31.368 108.818c-0.105 0.365-0.282 0.635-0.531 0.81-0.248 0.175-0.542 0.214-0.88 0.116v0c-0.254-0.073-0.478-0.286-0.673-0.639-0.195-0.353-0.31-0.721-0.347-1.106v0c-0.332-0.463-0.913-0.969-1.742-1.52-0.829-0.55-1.719-0.963-2.67-1.237v0l-1.672-0.515c-0.47-0.157-1.014-0.325-1.633-0.504v0l-1.405-0.374-3.497-0.831c-4.554-1.14-8.6-2.037-12.137-2.692v0c0.025 0.085 0.017 0.245-0.022 0.481v0c0.005 0.397-0.038 0.755-0.13 1.074v0c-0.066 0.228-0.208 0.402-0.427 0.522-0.218 0.12-0.441 0.148-0.669 0.082v0c-0.801-0.232-0.81-1.702-0.027-4.411v0l0.127-0.44c0.092-0.319 0.184-0.564 0.276-0.735 0.085-0.173 0.22-0.321 0.403-0.445v0c0.189-0.143 0.421-0.175 0.695-0.096v0c0.593 0.171 0.751 0.736 0.474 1.694v0c0 0-0.002 0.007-0.006 0.019-0.004 0.013-0.019 0.016-0.044 0.008v0l-0.02 0.069-0.127 0.439 0.273 0.079c0.593 0.171 1.489 0.356 2.688 0.555v0c1.354 0.271 2.259 0.473 2.715 0.604v0c1.615 0.467 3.856 0.991 6.723 1.573v0c2.697 0.582 4.944 1.132 6.742 1.651v0l1.358 0.393 1.368 0.395c1.368 0.395 2.499 1.036 3.393 1.923 0.888 0.885 1.362 1.904 1.424 3.058z" fill="#ed2647" data-fill-palette-color="primary"></path><path d="M41.556 78.202c-0.272 0.477-0.543 0.787-0.812 0.93-0.269 0.143-0.601 0.102-0.995-0.123v0c-0.618-0.353-1.725-0.847-3.321-1.484v0l-0.725-0.249-2.202 2.794c0.401 0.392 1.257 1.115 2.569 2.168v0c0.937 0.698 1.494 1.274 1.672 1.727v0c0.099 0.251 0.072 0.51-0.079 0.774v0c-0.141 0.247-0.347 0.43-0.617 0.549-0.271 0.119-0.518 0.114-0.742-0.013v0l-0.124-0.152-0.108-0.098c-4.513-4.377-9.143-8.383-13.89-12.019v0c-0.082-0.047-0.216-0.135-0.401-0.264-0.187-0.138-0.458-0.32-0.812-0.545v0c-0.729-0.501-1.3-0.917-1.713-1.246-0.413-0.329-0.685-0.64-0.814-0.933v0l0.599-1.051c0.165-0.289 0.373-0.497 0.626-0.626 0.247-0.132 0.494-0.128 0.742 0.013v0c1.567 0.893 4.017 2.002 7.352 3.326v0c3.406 1.404 5.745 2.469 7.017 3.195v0c0.124 0.071 0.475 0.201 1.054 0.39v0c0.528 0.169 0.866 0.295 1.013 0.379v0c0.141 0.081 0.816 0.329 2.023 0.744v0c1.097 0.376 1.79 0.646 2.078 0.81v0l0.035 0.02c0.448 0.255 0.639 0.583 0.575 0.984zM34.464 76.862c-0.34-0.116-0.736-0.303-1.19-0.562v0c-1.855-1.058-4.317-2.243-7.384-3.556v0l-3.392-1.525c4.334 3.65 7.642 6.341 9.925 8.073v0c0.381-0.189 1.061-0.999 2.041-2.43z" fill="#ed2647" data-fill-palette-color="primary"></path><path d="M55.824 60.084c-0.276 0.299-0.693 0.366-1.252 0.201v0c-0.189-0.525-1.58-1.986-4.174-4.383v0c-0.612-0.566-1.314-1.136-2.104-1.709v0l-0.831-0.615c-0.519-0.387-0.901-0.694-1.144-0.919v0l-0.672-0.621c-0.599-0.231-1.705-0.662-3.319-1.294-1.603-0.632-2.935-1.179-3.994-1.642v0c-1.229-0.518-2.011-0.93-2.345-1.238v0l-0.127-0.118 0.111-1.019c0.306-0.262 0.98-0.221 2.02 0.122v0c0.9 0.315 2.109 0.859 3.627 1.634 1.513 0.77 2.304 1.188 2.374 1.252v0c-0.13-0.249-0.653-0.991-1.571-2.226v0c-0.922-1.24-1.689-2.383-2.301-3.429v0c-0.58-1.09-0.726-1.792-0.436-2.105v0c0.161-0.174 0.354-0.278 0.578-0.311 0.224-0.033 0.416 0.024 0.575 0.171v0c0.886 0.819 1.913 2.22 3.081 4.204v0c1.275 2.147 2.305 3.584 3.092 4.311v0l7.858 7.26c1.165 1.077 1.483 1.901 0.954 2.474z" fill="#ed2647" data-fill-palette-color="primary"></path><path d="M95.454 32.281c-0.44 0.179-0.859 0.236-1.259 0.171-0.396-0.073-0.665-0.286-0.808-0.637v0c0.287-0.68 0.007-2.063-0.84-4.148v0c-0.508-1.25-1.349-3.03-2.523-5.342v0c-1.149-2.197-1.991-3.952-2.524-5.264v0l-0.673-1.845c-0.189-0.538-0.422-1.146-0.698-1.825v0c-0.25-0.616-0.677-1.35-1.279-2.202v0c-0.665-0.879-1.077-1.516-1.239-1.912v0c-0.314-0.773 0.374-1.502 2.064-2.189v0l0.489-0.199c1.187-0.483 2.368-0.538 3.544-0.167v0c0.954 0.33 1.908 0.977 2.865 1.942v0c0.648 0.659 1.38 1.638 2.193 2.94v0c0.632 1.177 1.091 2.118 1.378 2.821v0l0.429 1.055 0.628 1.545c-0.008 0.106 0.006 0.203 0.041 0.291v0c0.071 0.176 0.135 0.304 0.189 0.384v0c0.061 0.078 0.118 0.183 0.172 0.315v0c0.286 0.703 0.52 1.585 0.702 2.645 0.191 1.064 0.294 2.182 0.31 3.354v0c-0.006 2.813-0.419 4.975-1.239 6.487v0c-0.49 0.865-1.131 1.459-1.922 1.78zM95.364 30.089c0.612-0.834 1.032-1.854 1.26-3.059 0.227-1.205 0.267-2.458 0.119-3.759v0c-0.283-2.388-0.871-4.681-1.765-6.879v0c-0.48-1.181-1.116-2.43-1.907-3.747v0c-0.793-1.266-1.808-2.288-3.047-3.065v0c-0.585-0.377-1.223-0.597-1.914-0.66-0.692-0.063-1.398 0.053-2.121 0.346v0l0.015 0.038c0.802 1.972 2.143 4.903 4.025 8.793v0c1.88 3.868 3.235 6.823 4.064 8.864v0z" fill="#ed2647" data-fill-palette-color="primary"></path><path d="M124.152 24.821c-0.302 0.044-0.592-0.02-0.871-0.192-0.278-0.172-0.45-0.411-0.515-0.717v0l-0.132-0.916-0.103-0.704c-0.057-0.204-0.106-0.447-0.147-0.729v0c-0.072-0.496-0.215-1.243-0.427-2.24v0l-0.398-2.244c-0.166-1.147-0.381-2.863-0.644-5.148v0c-0.202-2.053-0.403-3.771-0.603-5.153v0c-0.048-0.329-0.153-0.817-0.315-1.465v0c-0.172-0.667-0.281-1.155-0.326-1.463v0c-0.241-1.664 0.131-2.567 1.118-2.711v0c0.772-0.112 1.689-0.091 2.752 0.063 1.065 0.161 1.628 0.452 1.689 0.876v0c0.034 0.235-0.032 0.464-0.198 0.686-0.172 0.23-0.39 0.427-0.655 0.588v0c-1.038-0.213-1.964-0.318-2.779-0.316v0c0.077 0.345 0.164 0.846 0.259 1.504v0c0.136 0.939 0.245 1.787 0.328 2.542v0c0.095 1.13 0.184 1.977 0.266 2.541v0l0.182 0.549 0.559-0.112c0.184-0.054 0.417-0.102 0.699-0.143v0c1.127-0.164 1.738 0.084 1.834 0.741v0c0.038 0.262-0.034 0.495-0.217 0.7-0.189 0.206-0.448 0.332-0.777 0.38v0c-0.423 0.061-0.755 0.086-0.997 0.072v0l-0.876 0.127c0.136 0.604 0.288 1.493 0.459 2.667v0c0.169 1.167 0.309 2.223 0.418 3.166v0c0.141 1.446 0.262 2.517 0.364 3.215v0c0.191 1.315 0.31 1.969 0.357 1.963v0l1.153-0.198c0.399-0.085 0.88-0.169 1.443-0.251v0c0.886-0.128 1.369 0.089 1.451 0.653v0c0.048 0.329-0.06 0.601-0.323 0.817-0.27 0.217-0.616 0.357-1.039 0.418v0z" fill="#ed2647" data-fill-palette-color="primary"></path><path d="M152.259 24.424l-0.624-0.596c0.279-2.711 0.314-5.543 0.106-8.495-0.208-2.952-0.639-6.585-1.292-10.897v0c-0.023-0.241-0.09-0.616-0.202-1.125v0c-0.289-1.366-0.416-2.224-0.379-2.575v0c0.022-0.216 0.129-0.396 0.321-0.539 0.193-0.151 0.397-0.215 0.613-0.193v0c0.351 0.036 0.651 0.367 0.9 0.992v0c0.245 0.598 0.451 1.386 0.615 2.364 0.158 0.984 0.316 2.2 0.474 3.647v0c0.145 1.371 0.278 3.467 0.397 6.287v0l0.07 1.408 0.101 3.19c0.005 0.88 0.022 1.512 0.051 1.897v0c0.765-2.539 1.788-6.223 3.068-11.053v0c1.065-4.13 1.808-6.947 2.228-8.451v0l0.779 0.08c0.209 0.021 0.39 0.118 0.543 0.291 0.147 0.165 0.209 0.355 0.186 0.571v0c-0.087 0.85-0.282 1.753-0.585 2.711-0.296 0.958-0.717 2.1-1.262 3.428v0c-0.451 1.14-0.758 2.001-0.92 2.584-0.168 0.576-0.365 1.496-0.59 2.76v0c-0.482 2.833-1.038 5.359-1.669 7.578v0c-0.404 1.342-0.858 2.382-1.363 3.121-0.505 0.732-1.027 1.07-1.566 1.015z" fill="#ed2647" data-fill-palette-color="primary"></path><path d="M178.744 30.404c-0.288-0.1-0.516-0.291-0.684-0.572-0.168-0.281-0.21-0.572-0.128-0.873v0l0.304-0.874 0.233-0.672c0.043-0.207 0.112-0.446 0.206-0.715v0c0.165-0.474 0.382-1.202 0.651-2.185v0l0.68-2.176c0.38-1.095 0.98-2.717 1.798-4.866v0c0.766-1.916 1.378-3.533 1.836-4.853v0c0.109-0.314 0.24-0.796 0.394-1.445v0c0.154-0.671 0.282-1.154 0.385-1.449v0c0.552-1.588 1.298-2.219 2.239-1.892v0c0.737 0.256 1.541 0.697 2.415 1.323 0.871 0.633 1.237 1.151 1.097 1.554v0c-0.078 0.224-0.242 0.397-0.492 0.518-0.259 0.125-0.543 0.199-0.852 0.221v0c-0.824-0.666-1.598-1.186-2.322-1.56v0c-0.09 0.342-0.244 0.827-0.462 1.455v0c-0.311 0.897-0.604 1.699-0.879 2.407v0c-0.435 1.047-0.747 1.84-0.934 2.378v0l-0.09 0.572 0.548 0.158c0.188 0.037 0.417 0.102 0.685 0.195v0c1.076 0.374 1.505 0.874 1.287 1.502v0c-0.087 0.25-0.258 0.423-0.514 0.521-0.263 0.095-0.551 0.089-0.865-0.021v0c-0.403-0.14-0.71-0.272-0.918-0.394v0l-0.836-0.29c-0.158 0.598-0.431 1.458-0.82 2.579v0c-0.387 1.114-0.749 2.115-1.086 3.003v0c-0.54 1.348-0.926 2.356-1.157 3.021v0c-0.436 1.255-0.631 1.891-0.587 1.907v0l1.115 0.355c0.393 0.108 0.859 0.255 1.396 0.442v0c0.845 0.294 1.175 0.709 0.988 1.247v0c-0.109 0.314-0.33 0.506-0.663 0.577-0.34 0.069-0.711 0.033-1.115-0.107v0z" fill="#ed2647" data-fill-palette-color="primary"></path><path d="M205.743 44.248c-0.568-0.698-1.385-1.386-2.45-2.062v0c-0.442 0-0.843-0.114-1.203-0.343v0c-0.24-0.153-0.379-0.389-0.417-0.71-0.041-0.315 0.015-0.593 0.168-0.833v0c1.069-1.683 2.563-3.878 4.483-6.586v0c2.014-2.905 3.491-5.099 4.433-6.581v0l0.131-0.206c0.683-1.341 1.221-2.321 1.613-2.939v0c1.207-1.9 2.159-2.628 2.858-2.185v0c0.2 0.127 0.328 0.312 0.382 0.556 0.054 0.243 0.018 0.465-0.11 0.665v0c-0.153 0.24-0.423 0.603-0.811 1.087v0c-0.383 0.464-0.656 0.824-0.819 1.082v0c-0.851 1.339-1.608 2.557-2.272 3.653v0c-0.655 1.07-1.408 2.274-2.259 3.614v0c-0.29 0.242-0.606 0.631-0.947 1.169v0l-0.229 0.36-1.565 2.332c-0.487 0.679-1.016 1.467-1.586 2.365v0c-0.876 1.379-0.985 2.278-0.327 2.696v0c0.04 0.025 0.11 0.062 0.208 0.108 0.095 0.052 0.223 0.13 0.383 0.232v0c0.192 0.09 0.428 0.224 0.709 0.401v0c1.082 0.687 1.432 1.331 1.05 1.932v0c-0.127 0.2-0.326 0.311-0.596 0.332-0.268 0.03-0.544-0.016-0.827-0.139z" fill="#ed2647" data-fill-palette-color="primary"></path><path d="M224.222 60.423c-0.429-0.444-0.686-0.987-0.77-1.632-0.075-0.644 0.01-1.316 0.257-2.016v0c0.558-1.501 1.394-2.903 2.51-4.208v0c1.005-1.273 2.046-2.43 3.123-3.471v0c0.205-0.198 0.385-0.353 0.54-0.465v0l0.453-0.438c0.088-0.085 0.122-0.137 0.104-0.157v0l0.46-0.445 1.82-1.702c0.555-0.508 1.489-1.279 2.801-2.312v0c0.899-0.709 1.88-1.279 2.942-1.712v0c0.459-0.208 0.868-0.306 1.228-0.295 0.364 0.016 0.659 0.141 0.885 0.375v0c0.66 0.682 1.129 1.417 1.408 2.203 0.279 0.786 0.378 1.582 0.298 2.385v0c-0.094 0.751-0.338 1.548-0.731 2.39-0.388 0.837-0.884 1.646-1.487 2.427v0c-0.613 0.79-1.321 1.574-2.126 2.352v0l-0.205 0.198c-0.527 0.509-0.995 0.976-1.405 1.4v0l-1.434 1.443c-4.904 4.74-8.461 5.967-10.671 3.68zM225.191 59.289c0.297 0.307 0.694 0.47 1.193 0.487 0.494 0.013 1.018-0.117 1.574-0.39v0c1.179-0.517 2.306-1.229 3.381-2.136v0c0.953-0.751 1.743-1.43 2.372-2.038v0c0.77-0.744 1.718-1.778 2.843-3.102v0c1.212-1.37 2.143-2.368 2.792-2.994v0l0.46-0.446c0.615-0.661 0.966-1.42 1.053-2.276 0.091-0.861-0.143-1.582-0.704-2.162v0c-0.561-0.58-1.262-0.642-2.104-0.187v0c-0.691 0.338-1.456 0.913-2.295 1.723v0c-0.322 0.311-0.585 0.585-0.79 0.821v0l-0.688 0.664-1.227 1.087c-0.389 0.31-0.798 0.672-1.226 1.086v0c-0.916 0.886-1.805 1.791-2.665 2.717v0c-1.211 1.303-2.29 2.675-3.234 4.116v0c-0.999 1.493-1.244 2.503-0.735 3.03z" fill="#ed2647" data-fill-palette-color="primary"></path><path d="M240.04 81.636l-0.011-0.866c0.928-0.897 2.352-1.907 4.271-3.031v0l2.765-1.536c0.843-0.439 1.768-0.953 2.774-1.542v0c0.215-0.291 0.433-0.501 0.656-0.631v0l0.087-0.052c0.512-0.025 1.452-0.438 2.822-1.239v0l1.428-0.801c0.464-0.24 0.971-0.522 1.521-0.844v0c1.205-0.706 2.108-1.344 2.709-1.915v0c0.321-0.109 0.632-0.154 0.934-0.135 0.299 0.014 0.508 0.123 0.628 0.328v0l0.792 1.351c0.336 0.573 0.5 1.149 0.492 1.727-0.004 0.584-0.175 1.124-0.513 1.62v0c-0.597 0.899-1.469 1.685-2.615 2.356v0c-0.819 0.48-1.47 0.845-1.951 1.096v0c-0.621 0.308-1.225 0.525-1.813 0.648v0c-0.298 0.096-0.567 0.139-0.807 0.131-0.241-0.008-0.544-0.043-0.909-0.104v0c-0.513-0.085-1.114-0.365-1.802-0.842v0c-0.304-0.183-0.642-0.453-1.015-0.808v0l-3.282 1.921-1.93 1.213-0.912 0.616c-1.099 0.753-2.046 1.363-2.841 1.829v0c-0.246 0.144-0.516 0.165-0.812 0.063-0.29-0.105-0.511-0.29-0.666-0.553zM251.754 75.838c0.896 1.101 2.98 0.695 6.25-1.22v0c0.597-0.349 1.04-0.652 1.33-0.908v0c0.206-0.199 0.357-0.397 0.453-0.596 0.094-0.189 0.131-0.414 0.11-0.677v0c-0.011-0.3-0.093-0.582-0.247-0.845v0c0.023-0.014-0.032-0.135-0.165-0.363v0l-1.747 1.023c-1.211 0.709-2.278 1.349-3.2 1.921v0c-1.065 0.623-1.756 1.04-2.073 1.249v0l-0.65 0.38z" fill="#ed2647" data-fill-palette-color="primary"></path><path d="M250.481 104.954c-0.056-0.43-0.014-0.819 0.126-1.168 0.131-0.353 0.371-0.609 0.72-0.767v0l0.697 0.187c0.042 0.136 0.065 0.367 0.067 0.693v0c0.034 0.359 0.079 0.629 0.135 0.81v0c0.127 0.408 0.423 0.72 0.888 0.938 0.463 0.211 1.015 0.305 1.654 0.284v0c1.178-0.047 2.198-0.205 3.059-0.473v0c1.489-0.464 2.915-1.426 4.278-2.887v0l0.522-0.579c0.611-0.659 1.165-1.229 1.662-1.71 0.498-0.475 1.055-0.921 1.671-1.34v0c0.796-0.546 1.637-0.957 2.523-1.233v0c0.99-0.308 2.1-0.405 3.329-0.291v0c0.595 0.063 1.12 0.255 1.574 0.575 0.461 0.318 0.772 0.736 0.934 1.254v0c0.127 0.408 0.115 0.827-0.035 1.257-0.15 0.43-0.406 0.702-0.769 0.814v0c-0.207 0.065-0.39 0.036-0.548-0.085-0.167-0.126-0.286-0.302-0.356-0.528v0c-0.077-0.246-0.082-0.503-0.017-0.772v0c-0.175-0.492-0.738-0.75-1.689-0.774v0c-0.868-0.007-1.565 0.072-2.09 0.235v0c-0.654 0.204-1.282 0.513-1.884 0.928-0.604 0.408-1.129 0.856-1.574 1.342v0l-1.126 1.171-1.874 1.883c-0.536 0.515-1.191 0.999-1.966 1.453-0.775 0.454-1.592 0.815-2.453 1.084v0c-1.379 0.429-2.792 0.521-4.238 0.275v0c-0.733-0.12-1.38-0.408-1.942-0.865-0.561-0.457-0.952-1.039-1.172-1.744v0z" fill="#ed2647" data-fill-palette-color="primary"></path><path d="M2.875 179.932c-0.099-0.345-0.095-0.65 0.013-0.914 0.114-0.266 0.331-0.444 0.65-0.536v0c0.241-0.069 0.525-0.013 0.852 0.168 0.336 0.186 0.615 0.423 0.84 0.711v0c0.502 0.201 1.223 0.315 2.161 0.341 0.937 0.02 1.858-0.1 2.764-0.361v0l1.592-0.426c0.464-0.105 0.985-0.241 1.565-0.408v0l1.318-0.421 3.22-1.095c4.225-1.377 7.919-2.697 11.083-3.959v0c-0.064-0.052-0.137-0.183-0.219-0.393v0c-0.21-0.313-0.358-0.62-0.444-0.919v0c-0.062-0.215-0.035-0.427 0.081-0.637 0.116-0.21 0.282-0.346 0.497-0.408v0c0.756-0.217 1.503 0.958 2.241 3.525v0l0.121 0.42c0.086 0.3 0.138 0.542 0.156 0.728 0.016 0.179-0.019 0.362-0.106 0.549v0c-0.08 0.213-0.25 0.358-0.511 0.432v0c-0.56 0.161-0.971-0.211-1.231-1.116v0c0 0-0.002-0.007-0.006-0.02-0.004-0.013 0.007-0.023 0.034-0.031v0l-0.017-0.058-0.121-0.421-0.264 0.076c-0.56 0.161-1.372 0.465-2.436 0.912v0c-1.215 0.462-2.04 0.756-2.477 0.882v0c-1.525 0.438-3.582 1.146-6.172 2.124v0c-2.451 0.895-4.531 1.589-6.238 2.079v0l-1.29 0.371-1.29 0.371c-1.297 0.373-2.526 0.427-3.689 0.161-1.154-0.261-2.046-0.837-2.677-1.727z" fill="#ca3433" data-fill-palette-color="default"></path><path d="M20.787 213.846c-0.258-0.454-0.38-0.825-0.365-1.115 0.021-0.293 0.214-0.543 0.579-0.75v0c0.589-0.335 1.53-0.999 2.822-1.991v0l0.54-0.471-1.202-3.142c-0.515 0.137-1.516 0.488-3.004 1.053v0c-1.022 0.425-1.761 0.6-2.218 0.524v0c-0.254-0.035-0.453-0.179-0.597-0.432v0c-0.134-0.236-0.183-0.493-0.146-0.771 0.037-0.278 0.161-0.478 0.374-0.599v0l0.18-0.032 0.135-0.03c5.746-1.567 11.244-3.407 16.493-5.519v0c0.077-0.044 0.213-0.106 0.409-0.186 0.199-0.09 0.477-0.224 0.835-0.404v0c0.758-0.353 1.37-0.615 1.834-0.786 0.467-0.18 0.855-0.252 1.164-0.217v0l0.563 0.99c0.158 0.277 0.227 0.55 0.207 0.818-0.013 0.265-0.138 0.464-0.373 0.598v0c-1.485 0.845-3.574 2.301-6.266 4.371v0c-2.775 2.101-4.767 3.495-5.975 4.182v0c-0.118 0.067-0.395 0.287-0.83 0.659v0c-0.391 0.355-0.654 0.571-0.79 0.648v0c-0.136 0.077-0.667 0.508-1.593 1.292v0c-0.84 0.704-1.395 1.133-1.666 1.287v0l-0.027 0.015c-0.43 0.245-0.791 0.247-1.083 0.008zM25.299 208.717c0.261-0.227 0.607-0.462 1.037-0.706v0c1.756-0.999 3.91-2.43 6.461-4.295v0l2.875-2.021c-5.061 1.771-8.85 3.165-11.367 4.184v0c-0.027 0.405 0.305 1.352 0.994 2.838z" fill="#ca3433" data-fill-palette-color="default"></path><path d="M38.081 236.773c-0.257-0.279-0.292-0.676-0.103-1.192v0c0.519-0.138 2.007-1.34 4.463-3.606v0c0.578-0.533 1.164-1.153 1.758-1.858v0l0.649-0.737c0.402-0.464 0.718-0.801 0.947-1.013v0l0.643-0.593c0.262-0.546 0.753-1.553 1.474-3.021 0.716-1.473 1.331-2.691 1.846-3.654v0c0.582-1.119 1.03-1.823 1.344-2.112v0l0.127-0.117 0.943 0.181c0.227 0.316 0.137 0.948-0.271 1.897v0c-0.364 0.825-0.967 1.926-1.809 3.302-0.842 1.367-1.295 2.081-1.36 2.141v0c0.244-0.096 0.983-0.534 2.219-1.314v0c1.24-0.775 2.379-1.411 3.416-1.907v0c1.065-0.466 1.733-0.552 2.004-0.258v0c0.156 0.169 0.24 0.36 0.25 0.571 0.015 0.217-0.049 0.391-0.194 0.525v0c-0.842 0.777-2.242 1.644-4.199 2.602v0c-2.124 1.037-3.557 1.899-4.299 2.584v0l-7.444 6.87c-1.101 1.016-1.902 1.253-2.404 0.709z" fill="#ca3433" data-fill-palette-color="default"></path><path d="M86.952 269.974c-0.415-0.168-0.735-0.407-0.96-0.718-0.225-0.311-0.271-0.632-0.136-0.965v0c0.644-0.273 1.366-1.396 2.165-3.37v0c0.481-1.188 1.085-2.951 1.812-5.29v0c0.668-2.246 1.255-3.994 1.761-5.244v0l0.76-1.689c0.22-0.489 0.461-1.057 0.723-1.704v0c0.234-0.578 0.429-1.359 0.586-2.342v0c0.125-1.032 0.264-1.736 0.416-2.113v0c0.295-0.729 1.244-0.769 2.847-0.12v0l0.471 0.19c1.119 0.453 1.957 1.191 2.516 2.215v0c0.423 0.852 0.642 1.92 0.655 3.205v0c0.009 0.881-0.142 2.031-0.452 3.449v0c-0.347 1.22-0.655 2.16-0.922 2.819v0l-0.404 0.999-0.596 1.471c-0.077 0.064-0.132 0.137-0.165 0.218v0c-0.069 0.17-0.107 0.3-0.115 0.393v0c-0.014 0.089-0.047 0.197-0.097 0.322v0c-0.27 0.666-0.689 1.422-1.258 2.267-0.575 0.842-1.241 1.666-1.999 2.471v0c-1.862 1.909-3.569 3.108-5.121 3.599v0c-0.91 0.261-1.739 0.24-2.487-0.063zM88.345 268.431c0.96-0.167 1.915-0.585 2.866-1.253 0.944-0.671 1.798-1.496 2.559-2.475v0c1.384-1.81 2.496-3.755 3.339-5.835v0c0.453-1.119 0.845-2.386 1.177-3.802v0c0.295-1.38 0.28-2.743-0.046-4.089v0c-0.151-0.639-0.443-1.21-0.875-1.714-0.429-0.495-0.985-0.882-1.67-1.159v0l-0.011 0.028c-0.758 1.873-1.777 4.752-3.057 8.637v0c-1.272 3.866-2.299 6.764-3.08 8.693v0z" fill="#ca3433" data-fill-palette-color="default"></path><path d="M120.856 279.564c-0.289-0.041-0.536-0.18-0.741-0.415-0.199-0.234-0.292-0.497-0.277-0.79v0l0.124-0.865 0.095-0.665c0.009-0.204 0.032-0.437 0.07-0.699v0c0.068-0.47 0.136-1.186 0.206-2.148v0l0.236-2.144c0.156-1.087 0.423-2.703 0.799-4.848v0c0.372-1.919 0.651-3.533 0.84-4.842v0c0.044-0.309 0.078-0.78 0.1-1.413v0c0.025-0.654 0.059-1.125 0.101-1.414v0c0.227-1.577 0.806-2.299 1.739-2.165v0c0.731 0.105 1.56 0.371 2.484 0.799 0.925 0.427 1.358 0.842 1.301 1.245v0c-0.032 0.221-0.159 0.412-0.38 0.572-0.215 0.161-0.461 0.28-0.74 0.356v0c-0.885-0.47-1.698-0.813-2.441-1.028v0c-0.02 0.333-0.075 0.811-0.165 1.435v0c-0.127 0.886-0.255 1.683-0.385 2.39v0c-0.22 1.057-0.369 1.851-0.444 2.381v0l0.024 0.548 0.537 0.047c0.184 0.006 0.407 0.028 0.669 0.065v0c1.067 0.153 1.556 0.539 1.468 1.156v0c-0.036 0.248-0.166 0.442-0.392 0.581-0.218 0.133-0.484 0.177-0.8 0.131v0c-0.396-0.057-0.702-0.121-0.917-0.193v0l-0.836-0.12c-0.036 0.584-0.133 1.429-0.292 2.537v0c-0.16 1.114-0.317 2.112-0.472 2.994v0c-0.262 1.346-0.441 2.351-0.536 3.015v0c-0.178 1.242-0.244 1.866-0.197 1.872v0l1.102 0.128c0.379 0.034 0.836 0.089 1.373 0.166v0c0.839 0.121 1.22 0.446 1.144 0.976v0c-0.044 0.309-0.216 0.527-0.515 0.656-0.299 0.128-0.65 0.163-1.053 0.105v0z" fill="#ca3433" data-fill-palette-color="default"></path><path d="M154.799 280l-0.68-0.441c-0.266-2.563-0.784-5.191-1.554-7.885-0.763-2.695-1.864-5.975-3.3-9.841v0c-0.07-0.218-0.207-0.554-0.412-1.01v0c-0.527-1.206-0.808-1.978-0.843-2.316v0c-0.02-0.196 0.045-0.383 0.197-0.562 0.146-0.172 0.32-0.268 0.522-0.289v0c0.337-0.035 0.68 0.212 1.028 0.742v0c0.345 0.503 0.686 1.193 1.023 2.071 0.343 0.878 0.729 1.973 1.158 3.285v0c0.394 1.241 0.921 3.159 1.579 5.756v0l0.327 1.285 0.713 2.932c0.174 0.82 0.313 1.406 0.418 1.756v0c0.217-2.504 0.453-6.113 0.707-10.829v0c0.188-4.034 0.332-6.789 0.431-8.265v0l0.728-0.076c0.202-0.021 0.388 0.031 0.558 0.157 0.177 0.132 0.276 0.295 0.296 0.491v0c0.084 0.809 0.076 1.686-0.023 2.63-0.093 0.943-0.261 2.082-0.505 3.416v0c-0.195 1.145-0.314 2.002-0.357 2.573-0.043 0.57-0.046 1.463-0.008 2.679v0c0.098 2.716 0.069 5.163-0.088 7.34v0c-0.108 1.32-0.327 2.372-0.654 3.156-0.322 0.776-0.742 1.191-1.261 1.245z" fill="#ca3433" data-fill-palette-color="default"></path><path d="M186.729 272.838c-0.275 0.096-0.558 0.087-0.85-0.027-0.285-0.116-0.488-0.307-0.609-0.573v0l-0.288-0.826-0.221-0.634c-0.086-0.185-0.173-0.403-0.26-0.652v0c-0.156-0.448-0.425-1.116-0.806-2.003v0l-0.777-2.012c-0.362-1.037-0.869-2.594-1.522-4.671v0c-0.553-1.875-1.048-3.437-1.483-4.685v0c-0.103-0.294-0.29-0.728-0.562-1.302v0c-0.278-0.592-0.466-1.026-0.561-1.301v0c-0.525-1.504-0.342-2.412 0.548-2.722v0c0.698-0.243 1.556-0.388 2.573-0.434 1.018-0.046 1.594 0.123 1.728 0.506v0c0.074 0.211 0.049 0.439-0.074 0.683-0.117 0.242-0.281 0.461-0.493 0.657v0c-1.001-0.01-1.882 0.06-2.641 0.21v0c0.135 0.305 0.306 0.755 0.514 1.35v0c0.295 0.845 0.548 1.611 0.759 2.299v0c0.291 1.04 0.525 1.813 0.701 2.319v0l0.273 0.475 0.499-0.206c0.166-0.079 0.374-0.163 0.624-0.25v0c1.018-0.355 1.629-0.238 1.835 0.351v0c0.083 0.237 0.056 0.469-0.081 0.696-0.132 0.218-0.349 0.38-0.649 0.485v0c-0.378 0.132-0.679 0.215-0.904 0.25v0l-0.797 0.278c0.237 0.535 0.539 1.331 0.908 2.387v0c0.371 1.063 0.69 2.021 0.96 2.875v0c0.387 1.315 0.691 2.29 0.912 2.924v0c0.413 1.184 0.642 1.769 0.687 1.753v0l1.036-0.394c0.352-0.144 0.784-0.306 1.296-0.484v0c0.8-0.279 1.288-0.166 1.465 0.34v0c0.103 0.294 0.051 0.568-0.156 0.819-0.207 0.252-0.502 0.444-0.886 0.578v0z" fill="#ca3433" data-fill-palette-color="default"></path><path d="M218.682 256.814c-0.826 0.205-1.739 0.626-2.74 1.264v0c-0.183 0.382-0.446 0.682-0.789 0.9v0c-0.223 0.142-0.476 0.167-0.76 0.075-0.293-0.094-0.513-0.256-0.659-0.485v0c-1.013-1.589-2.295-3.751-3.844-6.485v0c-1.688-2.888-2.978-5.032-3.872-6.433v0l-0.126-0.197c-0.867-1.12-1.488-1.974-1.863-2.563v0c-1.144-1.795-1.388-2.902-0.73-3.322v0c0.189-0.12 0.4-0.154 0.634-0.102 0.23 0.046 0.408 0.166 0.532 0.36v0c0.142 0.223 0.341 0.599 0.597 1.127v0c0.245 0.511 0.446 0.889 0.603 1.135v0c0.809 1.269 1.549 2.405 2.221 3.409v0c0.659 0.995 1.391 2.125 2.196 3.388v0c0.085 0.348 0.29 0.776 0.614 1.285v0l0.219 0.343 1.375 2.271c0.383 0.689 0.846 1.459 1.389 2.31v0c0.831 1.303 1.558 1.757 2.181 1.36v0c0.04-0.026 0.101-0.068 0.183-0.129 0.078-0.066 0.192-0.147 0.341-0.241v0c0.161-0.126 0.372-0.274 0.635-0.442v0c1.023-0.652 1.715-0.696 2.076-0.129v0c0.12 0.189 0.137 0.403 0.049 0.644-0.088 0.241-0.242 0.46-0.462 0.657z" fill="#ca3433" data-fill-palette-color="default"></path><path d="M241.855 237.058c-0.404 0.42-0.913 0.679-1.524 0.777-0.607 0.103-1.246 0.047-1.917-0.166v0c-1.438-0.481-2.792-1.225-4.062-2.232v0c-1.24-0.912-2.368-1.857-3.384-2.835v0c-0.195-0.188-0.352-0.353-0.469-0.494v0l-0.432-0.416c-0.083-0.08-0.132-0.113-0.146-0.098v0l-0.432-0.417-1.679-1.658c-0.499-0.518-1.258-1.376-2.278-2.575v0c-0.701-0.826-1.275-1.736-1.72-2.73v0c-0.214-0.423-0.32-0.807-0.316-1.152-0.002-0.34 0.106-0.623 0.322-0.847v0c0.625-0.649 1.302-1.118 2.03-1.405 0.733-0.292 1.481-0.414 2.245-0.366v0c0.716 0.068 1.48 0.272 2.291 0.611 0.807 0.344 1.588 0.785 2.341 1.323v0c0.773 0.556 1.54 1.201 2.302 1.934v0l0.19 0.184c0.503 0.484 0.962 0.912 1.377 1.283v0l1.405 1.311c4.654 4.482 5.939 7.805 3.856 9.968zM240.745 236.173c0.277-0.288 0.417-0.667 0.418-1.137-0.004-0.465-0.145-0.959-0.424-1.481v0c-0.524-1.098-1.234-2.139-2.13-3.125v0c-0.74-0.873-1.411-1.599-2.012-2.177v0c-0.728-0.701-1.736-1.559-3.026-2.575v0c-1.335-1.106-2.31-1.956-2.925-2.549v0l-0.432-0.416c-0.648-0.558-1.383-0.866-2.204-0.922-0.816-0.052-1.488 0.196-2.014 0.742v0c-0.531 0.552-0.567 1.219-0.106 2.002v0c0.343 0.641 0.912 1.345 1.708 2.111v0c0.303 0.292 0.566 0.531 0.79 0.719v0l0.66 0.635 1.071 1.116c0.304 0.359 0.659 0.733 1.064 1.123v0c0.874 0.842 1.762 1.65 2.664 2.424v0c1.272 1.103 2.607 2.077 4.003 2.924v0c1.446 0.893 2.411 1.089 2.895 0.586z" fill="#ca3433" data-fill-palette-color="default"></path><path d="M261.17 211.154l-0.705 0.402c-1.172-0.346-2.668-1.05-4.49-2.112v0l-2.561-1.564c-0.749-0.492-1.598-1.014-2.547-1.567v0c-0.338-0.04-0.615-0.123-0.831-0.25v0l-0.088-0.051c-0.256-0.408-1.032-0.99-2.326-1.745v0l-1.32-0.805c-0.414-0.273-0.884-0.563-1.412-0.87v0c-1.142-0.666-2.087-1.111-2.835-1.335v0c-0.241-0.219-0.422-0.454-0.543-0.705-0.126-0.254-0.132-0.481-0.015-0.68v0l0.742-1.274c0.318-0.545 0.714-0.949 1.19-1.213 0.485-0.267 1.012-0.376 1.58-0.327v0c1.016 0.074 2.069 0.429 3.158 1.065v0c0.773 0.451 1.377 0.815 1.812 1.091v0c0.538 0.369 0.997 0.766 1.377 1.192v0c0.218 0.205 0.378 0.409 0.481 0.61 0.103 0.201 0.21 0.468 0.322 0.8v0c0.177 0.464 0.228 1.09 0.153 1.878v0c-0.012 0.33-0.077 0.732-0.196 1.204v0l3.11 1.814 1.893 1.033 0.941 0.466c1.128 0.556 2.07 1.054 2.825 1.494v0c0.234 0.137 0.377 0.349 0.428 0.638 0.051 0.289 0.004 0.559-0.143 0.811zM250.945 204.18c0.49-1.245-0.814-2.77-3.912-4.576v0c-0.562-0.328-1.016-0.553-1.36-0.676v0c-0.268-0.078-0.503-0.113-0.705-0.104-0.204 0.014-0.41 0.091-0.616 0.229v0c-0.24 0.143-0.434 0.34-0.58 0.592v0c-0.018-0.01-0.09 0.093-0.216 0.309v0l1.652 0.963c1.142 0.666 2.168 1.248 3.077 1.748v0c1.007 0.587 1.671 0.963 1.992 1.126v0l0.607 0.353z" fill="#ca3433" data-fill-palette-color="default"></path><path d="M273.51 182.526c-0.183 0.362-0.423 0.646-0.721 0.853-0.296 0.2-0.622 0.269-0.98 0.208v0l-0.433-0.527c0.04-0.13 0.145-0.321 0.315-0.573v0c0.163-0.297 0.271-0.534 0.325-0.709v0c0.118-0.382 0.053-0.782-0.194-1.199-0.247-0.417-0.627-0.786-1.137-1.106v0c-0.938-0.595-1.814-1.018-2.631-1.27v0c-1.419-0.438-3.047-0.451-4.884-0.039v0l-0.723 0.171c-0.832 0.19-1.57 0.339-2.213 0.445-0.643 0.107-1.315 0.158-2.017 0.154v0c-0.914-0.005-1.788-0.137-2.624-0.395v0c-0.946-0.292-1.868-0.811-2.766-1.556v0c-0.426-0.366-0.734-0.794-0.923-1.285-0.189-0.491-0.206-0.986-0.052-1.485v0c0.118-0.382 0.351-0.701 0.699-0.955 0.35-0.261 0.697-0.338 1.04-0.232v0c0.194 0.06 0.323 0.185 0.385 0.374 0.058 0.181 0.053 0.378-0.012 0.592v0c-0.072 0.233-0.206 0.437-0.402 0.611v0c-0.12 0.481 0.182 0.986 0.906 1.514v0c0.679 0.465 1.265 0.774 1.758 0.925v0c0.622 0.192 1.279 0.292 1.972 0.3 0.688 0 1.338-0.07 1.948-0.207v0l1.501-0.314 2.467-0.473c0.694-0.112 1.465-0.137 2.311-0.074 0.855 0.058 1.69 0.213 2.506 0.465v0c1.302 0.402 2.45 1.086 3.443 2.052v0c0.51 0.484 0.862 1.057 1.055 1.72 0.195 0.656 0.189 1.318-0.017 1.985v0z" fill="#ca3433" data-fill-palette-color="default"></path><path d="M1.565 140.337c0-5.686 4.609-10.295 10.294-10.295 5.686 0 10.295 4.609 10.295 10.295 0 5.686-4.609 10.295-10.295 10.294-5.686 0-10.295-4.609-10.294-10.294z" fill="#ed2647" data-fill-palette-color="primary"></path><path d="M257.846 140.337c0-5.686 4.609-10.295 10.295-10.295 5.686 0 10.295 4.609 10.294 10.295 0 5.686-4.609 10.295-10.294 10.294-5.686 0-10.295-4.609-10.295-10.294z" fill="#ed2647" data-fill-palette-color="primary"></path></g></svg></g></svg></g></svg></g><g></g></svg></g><defs></defs></svg><rect width="280" height="280" fill="none" stroke="none" visibility="hidden"></rect></g></svg></g></svg>